<svg xmlns="http://www.w3.org/2000/svg" width="115" height="19" viewBox="0 0 115 19">
    <path fill="#FF2F6E" fill-rule="evenodd" d="M110.733 18.71l-1.223-3.092h-7.571l-1.223 3.091h-4.267L103.942.291h3.564L115 18.709h-4.267zm-4.995-13.028l-2.655 6.685h5.282l-2.627-6.685zM89.54 10.834h-7.857v7.875h-4.007V.291h4.007v6.844h7.857V.29h4.007v18.418H89.54v-7.875zm-22.533 4.467c1.872 0 3.408-.714 4.63-2.114l2.733 2.352C72.522 17.732 69.895 19 67.007 19c-2.733 0-5.022-.899-6.921-2.695-1.9-1.824-2.837-4.07-2.837-6.792 0-2.721.938-4.968 2.837-6.791C61.985.899 64.274 0 67.006 0c2.889 0 5.49 1.295 7.338 3.435l-2.732 2.352c-1.223-1.4-2.759-2.088-4.605-2.088-1.614 0-2.967.555-4.085 1.665-1.12 1.11-1.666 2.484-1.666 4.15 0 1.664.547 3.038 1.64 4.148 1.118 1.084 2.471 1.639 4.11 1.639zM50.31 18.709h-4.007V3.99h-4.918V.29H55.15v3.7h-4.84v14.72zm-12.645 0l-1.223-3.091h-7.571l-1.223 3.091H23.38L30.874.291h3.565l7.493 18.418h-4.267zM32.67 5.682l-2.654 6.685h5.282L32.67 5.682zM15.481 18.709L12.177 7.716 8.872 18.71H5.49L0 .291h3.955l3.409 11.284L10.616.29h3.148l3.252 11.284L20.424.29h3.93l-5.49 18.418H15.48z"/>
</svg>
